<svg width="24" height="24" viewBox="0 0 24 24" fill="none" xmlns="http://www.w3.org/2000/svg">
<path fill-rule="evenodd" clip-rule="evenodd" d="M2.17419 11.5705C2.17419 6.71916 6.70763 3 12.0155 3C17.3235 3 21.8569 6.71916 21.8569 11.5705C21.8569 16.4219 17.3235 20.1411 12.0155 20.1411C10.8386 20.1411 9.70724 19.9612 8.65726 19.6297C7.41882 20.7856 5.61942 21.3412 3.41825 21.4276C2.5216 21.4629 1.87441 20.5302 2.24986 19.6954C2.78249 18.5028 3.47069 17.1356 3.5523 15.9431C2.68073 14.6739 2.17419 13.1761 2.17419 11.5705ZM12.0155 4.71429C7.39977 4.71429 3.88847 7.90192 3.88847 11.5705C3.88847 12.8879 4.32959 14.1238 5.10721 15.1711C5.21694 15.3188 5.27619 15.498 5.27619 15.6821C5.27619 17.0824 4.71796 18.4037 4.14954 19.6576C5.91188 19.4704 7.06803 18.9061 7.76519 18.0857C7.99933 17.8102 8.3812 17.7112 8.7197 17.8383C9.72445 18.2157 10.839 18.4268 12.0155 18.4268C16.6313 18.4268 20.1426 15.2391 20.1426 11.5705C20.1426 7.90192 16.6313 4.71429 12.0155 4.71429Z" fill="#191816"/>
</svg>
